<svg xmlns="http://www.w3.org/2000/svg" version="1.1" xmlns:xlink="http://www.w3.org/1999/xlink" xmlns:svgjs="http://svgjs.dev/svgjs" viewBox="0 0 800 800" opacity="0.36" width="800" height="800"><g stroke-width="1" stroke="#374f80" fill="none"><line x1="50" y1="0" x2="0" y2="50"></line><line x1="100" y1="0" x2="50" y2="50"></line><line x1="150" y1="0" x2="100" y2="50"></line><line x1="200" y1="0" x2="150" y2="50"></line><line x1="250" y1="0" x2="200" y2="50"></line><line x1="300" y1="0" x2="250" y2="50"></line><line x1="350" y1="0" x2="300" y2="50"></line><line x1="400" y1="0" x2="350" y2="50"></line><line x1="450" y1="0" x2="400" y2="50"></line><line x1="500" y1="0" x2="450" y2="50"></line><line x1="550" y1="0" x2="500" y2="50"></line><line x1="600" y1="0" x2="550" y2="50"></line><line x1="650" y1="0" x2="600" y2="50"></line><line x1="700" y1="0" x2="650" y2="50"></line><line x1="750" y1="0" x2="700" y2="50"></line><line x1="800" y1="0" x2="750" y2="50"></line><line x1="850" y1="0" x2="800" y2="50"></line><line x1="50" y1="61.53846153846154" x2="0" y2="111.53846153846155"></line><line x1="100" y1="61.53846153846154" x2="50" y2="111.53846153846155"></line><line x1="150" y1="61.53846153846154" x2="100" y2="111.53846153846155"></line><line x1="200" y1="61.53846153846154" x2="150" y2="111.53846153846155"></line><line x1="250" y1="61.53846153846154" x2="200" y2="111.53846153846155"></line><line x1="300" y1="61.53846153846154" x2="250" y2="111.53846153846155"></line><line x1="350" y1="61.53846153846154" x2="300" y2="111.53846153846155"></line><line x1="400" y1="61.53846153846154" x2="350" y2="111.53846153846155"></line><line x1="450" y1="61.53846153846154" x2="400" y2="111.53846153846155"></line><line x1="500" y1="61.53846153846154" x2="450" y2="111.53846153846155"></line><line x1="550" y1="61.53846153846154" x2="500" y2="111.53846153846155"></line><line x1="600" y1="61.53846153846154" x2="550" y2="111.53846153846155"></line><line x1="650" y1="61.53846153846154" x2="600" y2="111.53846153846155"></line><line x1="700" y1="61.53846153846154" x2="650" y2="111.53846153846155"></line><line x1="750" y1="61.53846153846154" x2="700" y2="111.53846153846155"></line><line x1="800" y1="61.53846153846154" x2="750" y2="111.53846153846155"></line><line x1="850" y1="61.53846153846154" x2="800" y2="111.53846153846155"></line><line x1="50" y1="123.07692307692308" x2="0" y2="173.0769230769231"></line><line x1="100" y1="123.07692307692308" x2="50" y2="173.0769230769231"></line><line x1="150" y1="123.07692307692308" x2="100" y2="173.0769230769231"></line><line x1="200" y1="123.07692307692308" x2="150" y2="173.0769230769231"></line><line x1="250" y1="123.07692307692308" x2="200" y2="173.0769230769231"></line><line x1="300" y1="123.07692307692308" x2="250" y2="173.0769230769231"></line><line x1="350" y1="123.07692307692308" x2="300" y2="173.0769230769231"></line><line x1="400" y1="123.07692307692308" x2="350" y2="173.0769230769231"></line><line x1="450" y1="123.07692307692308" x2="400" y2="173.0769230769231"></line><line x1="500" y1="123.07692307692308" x2="450" y2="173.0769230769231"></line><line x1="550" y1="123.07692307692308" x2="500" y2="173.0769230769231"></line><line x1="600" y1="123.07692307692308" x2="550" y2="173.0769230769231"></line><line x1="650" y1="123.07692307692308" x2="600" y2="173.0769230769231"></line><line x1="700" y1="123.07692307692308" x2="650" y2="173.0769230769231"></line><line x1="750" y1="123.07692307692308" x2="700" y2="173.0769230769231"></line><line x1="800" y1="123.07692307692308" x2="750" y2="173.0769230769231"></line><line x1="850" y1="123.07692307692308" x2="800" y2="173.0769230769231"></line><line x1="50" y1="184.6153846153846" x2="0" y2="234.6153846153846"></line><line x1="100" y1="184.6153846153846" x2="50" y2="234.6153846153846"></line><line x1="150" y1="184.6153846153846" x2="100" y2="234.6153846153846"></line><line x1="200" y1="184.6153846153846" x2="150" y2="234.6153846153846"></line><line x1="250" y1="184.6153846153846" x2="200" y2="234.6153846153846"></line><line x1="300" y1="184.6153846153846" x2="250" y2="234.6153846153846"></line><line x1="350" y1="184.6153846153846" x2="300" y2="234.6153846153846"></line><line x1="400" y1="184.6153846153846" x2="350" y2="234.6153846153846"></line><line x1="450" y1="184.6153846153846" x2="400" y2="234.6153846153846"></line><line x1="500" y1="184.6153846153846" x2="450" y2="234.6153846153846"></line><line x1="550" y1="184.6153846153846" x2="500" y2="234.6153846153846"></line><line x1="600" y1="184.6153846153846" x2="550" y2="234.6153846153846"></line><line x1="650" y1="184.6153846153846" x2="600" y2="234.6153846153846"></line><line x1="700" y1="184.6153846153846" x2="650" y2="234.6153846153846"></line><line x1="750" y1="184.6153846153846" x2="700" y2="234.6153846153846"></line><line x1="800" y1="184.6153846153846" x2="750" y2="234.6153846153846"></line><line x1="850" y1="184.6153846153846" x2="800" y2="234.6153846153846"></line><line x1="50" y1="246.15384615384616" x2="0" y2="296.1538461538462"></line><line x1="100" y1="246.15384615384616" x2="50" y2="296.1538461538462"></line><line x1="150" y1="246.15384615384616" x2="100" y2="296.1538461538462"></line><line x1="200" y1="246.15384615384616" x2="150" y2="296.1538461538462"></line><line x1="250" y1="246.15384615384616" x2="200" y2="296.1538461538462"></line><line x1="300" y1="246.15384615384616" x2="250" y2="296.1538461538462"></line><line x1="350" y1="246.15384615384616" x2="300" y2="296.1538461538462"></line><line x1="400" y1="246.15384615384616" x2="350" y2="296.1538461538462"></line><line x1="450" y1="246.15384615384616" x2="400" y2="296.1538461538462"></line><line x1="500" y1="246.15384615384616" x2="450" y2="296.1538461538462"></line><line x1="550" y1="246.15384615384616" x2="500" y2="296.1538461538462"></line><line x1="600" y1="246.15384615384616" x2="550" y2="296.1538461538462"></line><line x1="650" y1="246.15384615384616" x2="600" y2="296.1538461538462"></line><line x1="700" y1="246.15384615384616" x2="650" y2="296.1538461538462"></line><line x1="750" y1="246.15384615384616" x2="700" y2="296.1538461538462"></line><line x1="800" y1="246.15384615384616" x2="750" y2="296.1538461538462"></line><line x1="850" y1="246.15384615384616" x2="800" y2="296.1538461538462"></line><line x1="50" y1="307.6923076923077" x2="0" y2="357.6923076923077"></line><line x1="100" y1="307.6923076923077" x2="50" y2="357.6923076923077"></line><line x1="150" y1="307.6923076923077" x2="100" y2="357.6923076923077"></line><line x1="200" y1="307.6923076923077" x2="150" y2="357.6923076923077"></line><line x1="250" y1="307.6923076923077" x2="200" y2="357.6923076923077"></line><line x1="300" y1="307.6923076923077" x2="250" y2="357.6923076923077"></line><line x1="350" y1="307.6923076923077" x2="300" y2="357.6923076923077"></line><line x1="400" y1="307.6923076923077" x2="350" y2="357.6923076923077"></line><line x1="450" y1="307.6923076923077" x2="400" y2="357.6923076923077"></line><line x1="500" y1="307.6923076923077" x2="450" y2="357.6923076923077"></line><line x1="550" y1="307.6923076923077" x2="500" y2="357.6923076923077"></line><line x1="600" y1="307.6923076923077" x2="550" y2="357.6923076923077"></line><line x1="650" y1="307.6923076923077" x2="600" y2="357.6923076923077"></line><line x1="700" y1="307.6923076923077" x2="650" y2="357.6923076923077"></line><line x1="750" y1="307.6923076923077" x2="700" y2="357.6923076923077"></line><line x1="800" y1="307.6923076923077" x2="750" y2="357.6923076923077"></line><line x1="850" y1="307.6923076923077" x2="800" y2="357.6923076923077"></line><line x1="50" y1="369.2307692307692" x2="0" y2="419.2307692307692"></line><line x1="100" y1="369.2307692307692" x2="50" y2="419.2307692307692"></line><line x1="150" y1="369.2307692307692" x2="100" y2="419.2307692307692"></line><line x1="200" y1="369.2307692307692" x2="150" y2="419.2307692307692"></line><line x1="250" y1="369.2307692307692" x2="200" y2="419.2307692307692"></line><line x1="300" y1="369.2307692307692" x2="250" y2="419.2307692307692"></line><line x1="350" y1="369.2307692307692" x2="300" y2="419.2307692307692"></line><line x1="400" y1="369.2307692307692" x2="350" y2="419.2307692307692"></line><line x1="450" y1="369.2307692307692" x2="400" y2="419.2307692307692"></line><line x1="500" y1="369.2307692307692" x2="450" y2="419.2307692307692"></line><line x1="550" y1="369.2307692307692" x2="500" y2="419.2307692307692"></line><line x1="600" y1="369.2307692307692" x2="550" y2="419.2307692307692"></line><line x1="650" y1="369.2307692307692" x2="600" y2="419.2307692307692"></line><line x1="700" y1="369.2307692307692" x2="650" y2="419.2307692307692"></line><line x1="750" y1="369.2307692307692" x2="700" y2="419.2307692307692"></line><line x1="800" y1="369.2307692307692" x2="750" y2="419.2307692307692"></line><line x1="850" y1="369.2307692307692" x2="800" y2="419.2307692307692"></line><line x1="50" y1="430.7692307692308" x2="0" y2="480.7692307692308"></line><line x1="100" y1="430.7692307692308" x2="50" y2="480.7692307692308"></line><line x1="150" y1="430.7692307692308" x2="100" y2="480.7692307692308"></line><line x1="200" y1="430.7692307692308" x2="150" y2="480.7692307692308"></line><line x1="250" y1="430.7692307692308" x2="200" y2="480.7692307692308"></line><line x1="300" y1="430.7692307692308" x2="250" y2="480.7692307692308"></line><line x1="350" y1="430.7692307692308" x2="300" y2="480.7692307692308"></line><line x1="400" y1="430.7692307692308" x2="350" y2="480.7692307692308"></line><line x1="450" y1="430.7692307692308" x2="400" y2="480.7692307692308"></line><line x1="500" y1="430.7692307692308" x2="450" y2="480.7692307692308"></line><line x1="550" y1="430.7692307692308" x2="500" y2="480.7692307692308"></line><line x1="600" y1="430.7692307692308" x2="550" y2="480.7692307692308"></line><line x1="650" y1="430.7692307692308" x2="600" y2="480.7692307692308"></line><line x1="700" y1="430.7692307692308" x2="650" y2="480.7692307692308"></line><line x1="750" y1="430.7692307692308" x2="700" y2="480.7692307692308"></line><line x1="800" y1="430.7692307692308" x2="750" y2="480.7692307692308"></line><line x1="850" y1="430.7692307692308" x2="800" y2="480.7692307692308"></line><line x1="50" y1="492.3076923076923" x2="0" y2="542.3076923076924"></line><line x1="100" y1="492.3076923076923" x2="50" y2="542.3076923076924"></line><line x1="150" y1="492.3076923076923" x2="100" y2="542.3076923076924"></line><line x1="200" y1="492.3076923076923" x2="150" y2="542.3076923076924"></line><line x1="250" y1="492.3076923076923" x2="200" y2="542.3076923076924"></line><line x1="300" y1="492.3076923076923" x2="250" y2="542.3076923076924"></line><line x1="350" y1="492.3076923076923" x2="300" y2="542.3076923076924"></line><line x1="400" y1="492.3076923076923" x2="350" y2="542.3076923076924"></line><line x1="450" y1="492.3076923076923" x2="400" y2="542.3076923076924"></line><line x1="500" y1="492.3076923076923" x2="450" y2="542.3076923076924"></line><line x1="550" y1="492.3076923076923" x2="500" y2="542.3076923076924"></line><line x1="600" y1="492.3076923076923" x2="550" y2="542.3076923076924"></line><line x1="650" y1="492.3076923076923" x2="600" y2="542.3076923076924"></line><line x1="700" y1="492.3076923076923" x2="650" y2="542.3076923076924"></line><line x1="750" y1="492.3076923076923" x2="700" y2="542.3076923076924"></line><line x1="800" y1="492.3076923076923" x2="750" y2="542.3076923076924"></line><line x1="850" y1="492.3076923076923" x2="800" y2="542.3076923076924"></line><line x1="50" y1="553.8461538461538" x2="0" y2="603.8461538461538"></line><line x1="100" y1="553.8461538461538" x2="50" y2="603.8461538461538"></line><line x1="150" y1="553.8461538461538" x2="100" y2="603.8461538461538"></line><line x1="200" y1="553.8461538461538" x2="150" y2="603.8461538461538"></line><line x1="250" y1="553.8461538461538" x2="200" y2="603.8461538461538"></line><line x1="300" y1="553.8461538461538" x2="250" y2="603.8461538461538"></line><line x1="350" y1="553.8461538461538" x2="300" y2="603.8461538461538"></line><line x1="400" y1="553.8461538461538" x2="350" y2="603.8461538461538"></line><line x1="450" y1="553.8461538461538" x2="400" y2="603.8461538461538"></line><line x1="500" y1="553.8461538461538" x2="450" y2="603.8461538461538"></line><line x1="550" y1="553.8461538461538" x2="500" y2="603.8461538461538"></line><line x1="600" y1="553.8461538461538" x2="550" y2="603.8461538461538"></line><line x1="650" y1="553.8461538461538" x2="600" y2="603.8461538461538"></line><line x1="700" y1="553.8461538461538" x2="650" y2="603.8461538461538"></line><line x1="750" y1="553.8461538461538" x2="700" y2="603.8461538461538"></line><line x1="800" y1="553.8461538461538" x2="750" y2="603.8461538461538"></line><line x1="850" y1="553.8461538461538" x2="800" y2="603.8461538461538"></line><line x1="50" y1="615.3846153846154" x2="0" y2="665.3846153846154"></line><line x1="100" y1="615.3846153846154" x2="50" y2="665.3846153846154"></line><line x1="150" y1="615.3846153846154" x2="100" y2="665.3846153846154"></line><line x1="200" y1="615.3846153846154" x2="150" y2="665.3846153846154"></line><line x1="250" y1="615.3846153846154" x2="200" y2="665.3846153846154"></line><line x1="300" y1="615.3846153846154" x2="250" y2="665.3846153846154"></line><line x1="350" y1="615.3846153846154" x2="300" y2="665.3846153846154"></line><line x1="400" y1="615.3846153846154" x2="350" y2="665.3846153846154"></line><line x1="450" y1="615.3846153846154" x2="400" y2="665.3846153846154"></line><line x1="500" y1="615.3846153846154" x2="450" y2="665.3846153846154"></line><line x1="550" y1="615.3846153846154" x2="500" y2="665.3846153846154"></line><line x1="600" y1="615.3846153846154" x2="550" y2="665.3846153846154"></line><line x1="650" y1="615.3846153846154" x2="600" y2="665.3846153846154"></line><line x1="700" y1="615.3846153846154" x2="650" y2="665.3846153846154"></line><line x1="750" y1="615.3846153846154" x2="700" y2="665.3846153846154"></line><line x1="800" y1="615.3846153846154" x2="750" y2="665.3846153846154"></line><line x1="850" y1="615.3846153846154" x2="800" y2="665.3846153846154"></line><line x1="50" y1="676.9230769230769" x2="0" y2="726.9230769230769"></line><line x1="100" y1="676.9230769230769" x2="50" y2="726.9230769230769"></line><line x1="150" y1="676.9230769230769" x2="100" y2="726.9230769230769"></line><line x1="200" y1="676.9230769230769" x2="150" y2="726.9230769230769"></line><line x1="250" y1="676.9230769230769" x2="200" y2="726.9230769230769"></line><line x1="300" y1="676.9230769230769" x2="250" y2="726.9230769230769"></line><line x1="350" y1="676.9230769230769" x2="300" y2="726.9230769230769"></line><line x1="400" y1="676.9230769230769" x2="350" y2="726.9230769230769"></line><line x1="450" y1="676.9230769230769" x2="400" y2="726.9230769230769"></line><line x1="500" y1="676.9230769230769" x2="450" y2="726.9230769230769"></line><line x1="550" y1="676.9230769230769" x2="500" y2="726.9230769230769"></line><line x1="600" y1="676.9230769230769" x2="550" y2="726.9230769230769"></line><line x1="650" y1="676.9230769230769" x2="600" y2="726.9230769230769"></line><line x1="700" y1="676.9230769230769" x2="650" y2="726.9230769230769"></line><line x1="750" y1="676.9230769230769" x2="700" y2="726.9230769230769"></line><line x1="800" y1="676.9230769230769" x2="750" y2="726.9230769230769"></line><line x1="850" y1="676.9230769230769" x2="800" y2="726.9230769230769"></line><line x1="50" y1="738.4615384615385" x2="0" y2="788.4615384615385"></line><line x1="100" y1="738.4615384615385" x2="50" y2="788.4615384615385"></line><line x1="150" y1="738.4615384615385" x2="100" y2="788.4615384615385"></line><line x1="200" y1="738.4615384615385" x2="150" y2="788.4615384615385"></line><line x1="250" y1="738.4615384615385" x2="200" y2="788.4615384615385"></line><line x1="300" y1="738.4615384615385" x2="250" y2="788.4615384615385"></line><line x1="350" y1="738.4615384615385" x2="300" y2="788.4615384615385"></line><line x1="400" y1="738.4615384615385" x2="350" y2="788.4615384615385"></line><line x1="450" y1="738.4615384615385" x2="400" y2="788.4615384615385"></line><line x1="500" y1="738.4615384615385" x2="450" y2="788.4615384615385"></line><line x1="550" y1="738.4615384615385" x2="500" y2="788.4615384615385"></line><line x1="600" y1="738.4615384615385" x2="550" y2="788.4615384615385"></line><line x1="650" y1="738.4615384615385" x2="600" y2="788.4615384615385"></line><line x1="700" y1="738.4615384615385" x2="650" y2="788.4615384615385"></line><line x1="750" y1="738.4615384615385" x2="700" y2="788.4615384615385"></line><line x1="800" y1="738.4615384615385" x2="750" y2="788.4615384615385"></line><line x1="850" y1="738.4615384615385" x2="800" y2="788.4615384615385"></line><line x1="50" y1="800" x2="0" y2="850"></line><line x1="100" y1="800" x2="50" y2="850"></line><line x1="150" y1="800" x2="100" y2="850"></line><line x1="200" y1="800" x2="150" y2="850"></line><line x1="250" y1="800" x2="200" y2="850"></line><line x1="300" y1="800" x2="250" y2="850"></line><line x1="350" y1="800" x2="300" y2="850"></line><line x1="400" y1="800" x2="350" y2="850"></line><line x1="450" y1="800" x2="400" y2="850"></line><line x1="500" y1="800" x2="450" y2="850"></line><line x1="550" y1="800" x2="500" y2="850"></line><line x1="600" y1="800" x2="550" y2="850"></line><line x1="650" y1="800" x2="600" y2="850"></line><line x1="700" y1="800" x2="650" y2="850"></line><line x1="750" y1="800" x2="700" y2="850"></line><line x1="800" y1="800" x2="750" y2="850"></line><line x1="850" y1="800" x2="800" y2="850"></line></g></svg>