<?xml version="1.0" encoding="utf-8"?>
<!-- Generator: Adobe Illustrator 27.8.1, SVG Export Plug-In . SVG Version: 6.00 Build 0)  -->
<svg version="1.1" id="Layer_1" xmlns="http://www.w3.org/2000/svg" xmlns:xlink="http://www.w3.org/1999/xlink" x="0px" y="0px"
	 viewBox="0 0 200 200" style="enable-background:new 0 0 200 200;" xml:space="preserve">
<style type="text/css">
	.st0{fill:#1C1C1C;}
</style>
<path class="st0" d="M171.05,148.32c-5.75-10.65-10.24-20.97-16.52-30.05c-7.05-10.19-7.37-18.9-0.01-28.99
	c5.06-6.93,8.44-15.09,12.54-22.71c0.75-1.4,1.37-2.88,2.33-4.93c-12.26,0-23.87-0.1-35.47,0.15c-1.29,0.03-2.96,1.85-3.75,3.24
	c-4.4,7.77-8.59,15.66-13.22,24.18c-2.71-4.99-5.15-9.12-7.17-13.45c-0.57-1.23-0.38-3.27,0.27-4.53
	c3.72-7.26,7.61-14.43,11.65-21.52c0.69-1.21,2.38-2.64,3.62-2.65c22.65-0.08,45.31,0.04,67.96,0.14c0.11,0,0.22,0.23,0.63,0.7
	c-4.32,8.01-8.72,16.17-13.12,24.32c-4.99,9.23-9.86,18.52-15.06,27.63c-1.61,2.83-1.58,4.92-0.02,7.75
	c9.96,18.07,19.72,36.24,30,55.23c-2.19,0.1-3.74,0.23-5.28,0.23c-20.83,0.01-41.66-0.08-62.48,0.08c-3.5,0.03-5.29-1.16-6.92-4.2
	c-15.99-29.76-32.14-59.43-48.7-89.97c-14.45,26.58-28.55,52.5-43.14,79.36c10.16,0,19.44-0.6,28.6,0.18
	c7.95,0.68,12.52-1.84,15.49-9.3c2.49-6.27,6.34-12,10.07-18.85c2.78,5.12,5.29,9.49,7.49,14.01c0.46,0.95,0.12,2.62-0.43,3.66
	c-3.94,7.52-7.95,15.01-12.15,22.39c-0.68,1.19-2.43,2.52-3.7,2.53c-22.97,0.15-45.94,0.11-70.11,0.11
	c22.76-42.01,45.1-83.25,67.82-125.18c10.58,19.52,20.72,38.2,30.85,56.9c9.04,16.69,18.02,33.41,27.22,50.02
	c0.86,1.56,3.03,3.35,4.63,3.39C146.63,148.45,158.29,148.32,171.05,148.32z"/>
</svg>
